# xmcd
#
# Track frame offsets: 
#        150
#        19713
#        38026
#        55967
#        75538
#        93294
#        118195
#        131444
#        151465
#        166003
#        190976
#
# Disc length: 2698 seconds
#
# Revision: 3
# Processed by: cddbd v1.5.2PL0 Copyright (c) Steve Scherf et al.
# Submitted via: ExactAudioCopy v1.3
#
DISCID=810a880b
DTITLE=MikeZito - First Class Life
DYEAR=2018
DGENRE=Blues Rock
TTITLE0=Mississippi Nights
TTITLE1=First Class Life
TTITLE2=I Wouldn't Treat A Dog (The Way You Treat Me)
TTITLE3=The World We Live In
TTITLE4=Mama Don't Like No Wah Wah
TTITLE5=Old Black Graveyard
TTITLE6=Dying Day
TTITLE7=Back Problems
TTITLE8=Time For A Change
TTITLE9=Damn Shame
TTITLE10=Trying To Make A Living
EXTD=
EXTT0=
EXTT1=
EXTT2=
EXTT3=
EXTT4=
EXTT5=
EXTT6=
EXTT7=
EXTT8=
EXTT9=
EXTT10=
PLAYORDER=
